<?xml version="1.0" encoding="UTF-8" standalone="no"?>
<!-- Created with Inkscape (http://www.inkscape.org/) -->

<svg
   width="240px"
   height="200px"
   viewBox="0 0 240 200"
   version="1.1"
   id="SVGRoot"
   sodipodi:docname="desenho-1.svg"
   inkscape:version="1.2.1 (9c6d41e410, 2022-07-14)"
   xmlns:inkscape="http://www.inkscape.org/namespaces/inkscape"
   xmlns:sodipodi="http://sodipodi.sourceforge.net/DTD/sodipodi-0.dtd"
   xmlns="http://www.w3.org/2000/svg"
   xmlns:svg="http://www.w3.org/2000/svg">
  <sodipodi:namedview
     id="namedview5480"
     pagecolor="#ffffff"
     bordercolor="#000000"
     borderopacity="0.25"
     inkscape:showpageshadow="2"
     inkscape:pageopacity="0.0"
     inkscape:pagecheckerboard="0"
     inkscape:deskcolor="#d1d1d1"
     inkscape:document-units="px"
     showgrid="false"
     inkscape:zoom="2.9825758"
     inkscape:cx="198.48616"
     inkscape:cy="142.159"
     inkscape:window-width="1920"
     inkscape:window-height="1017"
     inkscape:window-x="-8"
     inkscape:window-y="-8"
     inkscape:window-maximized="1"
     inkscape:current-layer="layer1" />
  <defs
     id="defs5475" />
  <g
     inkscape:label="Camada 1"
     inkscape:groupmode="layer"
     id="layer1">
    <path
       id="path4655"
       style="fill:#e6e6e6;stroke-width:0.724248"
       d="m 193.91359,41.376848 0.41686,1.086802 0.41683,1.086033 h 0.47541 l 2.27328,8.76332 -0.0206,0.02057 0.0182,0.02687 -0.004,0.121802 0.053,-0.05302 1.93871,2.813547 1.62943,1.798685 v 0.859021 0.858218 h 0.1661 l 3.14497,3.508018 1.14455,2.293842 1.39371,0.745904 1.39371,0.745905 v 1.13032 1.130303 l 1.24184,2.102441 1.24264,2.103236 3.07534,1.174608 3.07616,1.174616 1.11291,-0.42713 1.11291,-0.426335 1.63022,0.654927 1.63022,0.654928 0.21753,0.0467 0.21673,0.04588 2.13645,-1.105016 3.58552,-1.078109 v 0.01122 h 0.68183 0.68104 l 0.44294,-0.715842 0.44218,-0.715857 -1.124,0.431095 -0.60114,0.230977 0.004,-0.0082 -3.78486,0.599562 -1.81056,0.345658 v -1.17065 -1.170675 h -0.75776 -0.75697 l -1.8865,-1.886492 -1.88569,-1.886499 -1.52107,-0.181125 -1.52108,-0.181143 -2.53509,-1.563783 -2.53433,-1.563776 -1.26793,-0.43661 -1.26716,-0.436628 V 61.064308 59.19364 l -0.85191,0.851883 -0.85188,0.851893 -0.97607,-0.810759 -2.57703,-1.517103 -0.29346,-1.078118 -0.34487,-1.267157 -3.40441,-4.582169 0.0357,-0.03564 -0.38045,-0.949964 -1.94346,-7.178972 v -1.014065 -1.086802 h -1.06388 z" />
    <path
       id="santaisabel"
       style="fill:#e6e6e6;stroke-width:0.724248"
       d="m 117.18333,29.065957 -0.45482,0.736408 -0.45559,0.735613 -0.67393,-0.416855 -0.67392,-0.416044 v 1.491015 1.490989 h -0.82261 -0.82183 l -1.76469,1.903912 -1.76391,1.903895 -0.78703,-0.787029 -0.78702,-0.786235 0.83211,-1.002979 0.83211,-1.002168 -0.47617,-0.476957 -0.47697,-0.476179 h -1.08918 -1.08998 l -1.37313,1.242642 -1.37316,1.242617 -2.54302,0.08459 -0.99031,0.03319 -0.10516,0.0033 c 0.005,0.04408 0.009,0.0884 0.0128,0.132855 9.2e-4,0.01565 5.8e-4,0.03114 9.2e-4,0.0467 9e-4,0.0033 9.1e-4,0.0065 9.1e-4,0.009 2.1e-4,0.0033 5.9e-4,0.0041 9.1e-4,0.0082 9e-4,0.01835 5.8e-4,0.03621 0,0.05465 -4e-5,8.2e-4 2e-5,8.2e-4 0,0.0033 1e-4,0.01213 0.003,0.02377 9.1e-4,0.03556 h 0.53154 l 0.79732,0.797304 0.79731,0.798116 -1.76865,2.60629 -1.769429,2.607094 1.840619,0.964214 1.84062,0.964197 v 1.425357 1.425364 h 1.4483 1.44909 v 1.108951 1.108967 l -1.26796,0.468255 -1.26716,0.467484 -0.36227,0.414463 -0.36226,0.415266 -1.61915,0.904882 -1.619931,0.905677 h -1.313877 -1.31303 l -0.869301,0.869296 -0.869291,0.869304 v 1.665035 1.665798 h -1.525804 -1.525807 l 0.416845,1.086811 0.416852,1.086007 -0.52047,0.09268 -0.52047,0.09269 -1.479138,0.16373 -1.478356,0.16373 -1.780505,0.948391 -1.780503,0.948392 -0.881949,1.149305 -0.881951,1.149289 -0.02372,0.462725 -0.02297,0.462723 5.975109,-0.260229 5.975094,-0.25945 1.748073,-0.92703 1.748073,-0.927039 0.318775,0.949195 0.318766,0.949965 1.357336,-1.228401 1.35654,-1.228392 2.7107,0.440576 2.70991,0.439789 1.47043,1.816106 1.47045,1.81609 0.52996,0.01376 0.52917,0.01369 0.44373,-1.769426 0.44453,-1.768647 1.51791,-0.222259 1.51868,-0.22307 0.63201,-2.451262 0.63279,-2.452049 1.04014,-1.040146 1.04014,-1.040147 V 53.239283 50.71921 l 2.43386,-1.017204 2.43385,-1.016417 2.00041,-0.363054 2.00042,-0.36307 0.0927,-0.212771 0.0917,-0.21277 0.92703,-1.653966 0.92703,-1.654736 -0.4817,-3.628246 -0.48091,-3.628238 -1.89441,-1.024324 -1.89363,-1.023547 -3.25965,-2.916362 -3.25885,-2.916363 -0.5007,-0.01082 z"
       inkscape:label="#santaisabel" />
    <path
       id="saogabriel"
       style="fill:#e6e6e6;stroke-width:0.724248"
       d="m 85.955266,15.052864 -1.67689,1.574854 -1.676096,1.574854 h -0.630415 -0.63121 l -1.668183,1.567741 -1.668979,1.566938 -1.384225,-1.252129 -1.384221,-1.252934 -0.438208,0.709524 -0.438995,0.709516 0.909632,0.325092 0.910425,0.324296 -0.39391,0.43267 -0.39312,0.431891 -10.470265,0.210402 -10.470264,0.210386 -0.227802,3.186891 -0.228596,3.187662 0.952346,0.60352 0.952345,0.604323 2.62765,0.01122 2.626862,0.01123 0.859008,1.035386 0.8598,1.034615 0.276845,2.187854 0.276844,2.187084 -1.444337,0.458766 -1.444337,0.457997 -0.938108,-0.778344 -0.9389,-0.779106 -3.734238,1.109737 -3.734239,1.108959 v 2.085036 2.085825 l 0.440578,1.148526 0.440578,1.149298 2.456799,1.16511 2.456007,1.165907 v 0.893819 0.893804 l 2.834099,1.278237 2.834097,1.277448 0.80127,-0.495164 0.801266,-0.495139 2.514542,0.830515 2.51533,0.82976 0.677873,1.210194 0.677085,1.210989 2.183118,-0.824197 2.183117,-0.824214 0.404194,0.404205 0.404192,0.404194 v 4.949189 4.949189 l 1.267157,0.06006 1.267949,0.06006 1.767854,0.190623 1.768634,0.191416 3.175804,-2.424353 3.175804,-2.423592 h 1.392926 1.392927 v -1.086798 -1.086024 h 1.448288 1.449092 v -1.785256 -1.78524 l 1.629423,-0.89777 1.629426,-0.898564 1.267166,0.193793 1.267948,0.19458 V 50.838813 50.06917 h 1.086012 1.08602 v -0.72374 -0.724559 h 1.04411 1.04331 l 0.44295,-0.715834 0.44215,-0.71584 -1.06862,0.409726 -1.06861,0.409742 -0.80523,-1.504452 -0.80521,-1.504468 -1.241848,-0.05138 -1.241848,-0.05064 1.432466,-0.559231 1.43247,-0.56001 -1.619934,-0.866921 -1.61993,-0.866919 0.455598,-1.962432 0.455617,-1.963219 0.973689,-0.785448 0.97451,-0.785457 -0.84398,-0.843969 -0.843987,-0.843985 h 0.724537 0.012 c -0.003,-0.03072 -0.004,-0.06104 -0.005,-0.09167 -2e-5,-8.19e-4 3e-5,-0.0033 0,-0.0041 -0.005,-0.05457 -0.0118,-0.109331 -0.0174,-0.163747 -2e-5,-2.78e-4 -0.003,-0.01213 -9e-4,-0.02376 l -1.261624,0.04195 -3.535699,-3.178951 -3.535701,-3.178985 -1.454619,0.778336 -1.454621,0.778319 0.105169,-4.003968 0.105168,-4.004755 -1.576434,-1.468858 -1.576436,-1.468857 v -1.90864 z m 14.302584,19.799941 c 2.6e-4,8.19e-4 -8e-5,8.19e-4 0,8.19e-4 3e-5,2.8e-4 2.6e-4,8.2e-4 9e-4,0.0033 -1.8e-4,-8.2e-4 1.7e-4,-0.0033 0,-0.0041 z"
       inkscape:label="#saogabriel" />
    <path
       style="fill:#e6e6e6;stroke-width:0.724248"
       d="m 143.66045,75.037355 1.63188,-1.069226 1.2929,-0.04278 1.29292,-0.04278 3.2591,-1.732143 3.25911,-1.732168 1.8106,-0.837889 1.81062,-0.837889 1.39532,-0.732327 1.39532,-0.732327 0.95848,1.310807 0.95848,1.310806 0.0835,-0.681616 0.0835,-0.681615 -0.15076,-1.44848 -0.15075,-1.448497 -1.13132,-1.267427 -1.1313,-1.267445 h -1.67977 -1.67977 l -1.03591,-1.991676 -1.03589,-1.991668 -2.94893,-2.172744 -2.9489,-2.172728 -0.0171,-0.905301 -0.017,-0.905348 h 1.00785 1.00785 l 0.55862,-1.991676 0.55861,-1.991685 -0.18713,-1.086368 -0.18714,-1.086377 -1.40789,-3.100994 -1.40789,-3.100996 0.4025,-0.651249 0.40248,-0.651265 -0.80543,-0.497794 -0.80547,-0.497794 0.47079,-3.139425 0.47079,-3.139432 -0.87467,-2.919362 -0.87466,-2.919362 -1.25887,-1.139284 -1.25887,-1.13926 0.81684,-2.164092 0.81687,-2.164091 -1.07639,-0.680575 -1.0764,-0.680566 -1.62956,-0.01065 -1.62953,-0.01065 V 17.44837 16.694787 l -2.92731,0.172719 -2.9273,0.172735 -0.78261,0.942983 -0.78263,0.942976 h -2.08403 -2.08408 v 2.011473 2.011455 l -2.2886,2.008204 -2.28859,2.008228 -0.42755,-0.691744 -0.42751,-0.691759 -2.17253,1.738076 -2.17254,1.7381 2.17274,1.900888 2.17275,1.900905 2.66255,1.784953 2.66256,1.784986 0.55021,3.017131 0.55018,3.017114 -0.1828,1.08636 -0.18281,1.086385 -0.85672,2.000165 -0.85671,2.000173 -1.08686,0.276191 -1.08687,0.276183 -3.49144,0.910167 -3.49146,0.910183 0.41678,1.660611 0.41678,1.660635 -0.84387,1.852119 -0.84388,1.85211 h -0.59943 -0.59943 l -0.46326,2.896992 -0.46325,2.896984 h -1.33044 -1.33043 l -0.77521,1.448497 -0.77522,1.448472 0.38761,0.09065 0.38761,0.09043 0.83231,0.09065 0.83231,0.09043 0.49123,1.400423 0.49124,1.400422 0.52981,-0.857251 0.52981,-0.857226 h 0.6815 0.6815 v 1.497307 1.497291 l 1.4485,-0.459725 1.4485,-0.459758 v 1.135195 1.135162 l 0.54317,0.05883 0.54318,0.05884 1.97479,0.145408 1.97477,0.145401 0.40276,-1.049577 0.40277,-1.049595 0.78875,0.788767 0.78876,0.788759 0.99812,-0.383015 0.99811,-0.383014 v 1.932475 1.932475 l 3.17347,-0.4759 3.17349,-0.475883 0.38116,0.612582 0.38115,0.612566 2.39261,0.163943 2.3926,0.163934 1.63185,-1.069242 z"
       id="barcelos"
       inkscape:label="#barcelos" />
    <path
       id="path4641"
       style="fill:#e6e6e6;stroke-width:0.724248"
       d="m 190.38028,59.538663 -0.40895,1.066219 -0.40974,1.066252 -0.006,0.535503 -0.006,0.535494 h 1.6152 1.61598 v 3.259661 3.25885 l 0.54499,0.840019 0.54577,0.84002 -0.40734,1.062303 -0.40817,1.06308 4.93181,0.514929 4.93258,0.515729 1.90864,2.062095 1.90864,2.062881 1.63813,-0.428711 1.63892,-0.428712 -1.19278,-0.872451 h -8.2e-4 l -1.1928,-0.872467 V 74.81889 74.019201 l -1.44831,-0.775157 -1.44907,-0.775173 v -1.002176 -1.00139 l -2.5343,-1.566938 -2.53512,-1.566939 v -0.978455 -0.978438 l -1.44434,-0.457981 -1.44434,-0.458782 -0.92862,-0.857416 -0.92939,-0.858225 -2.26777,-1.601738 z" />
    <path
       id="path5280"
       style="fill:#e6e6e6;stroke-width:0.724248"
       d="m 197.48885,74.066668 -1.66027,0.177175 -1.66029,0.177185 -0.87403,0.540238 -0.15424,0.09572 c -0.008,0.100776 -0.0552,0.197137 -0.0949,0.301338 -0.0138,0.03859 -0.26795,0.472492 -0.29979,0.451671 -0.0308,-0.01999 -0.0598,-0.03859 -0.0879,-0.05612 -0.0312,0.02081 -0.0619,0.03834 -0.0918,0.05302 l 0.64228,0.774362 0.83685,1.008501 1.90312,0.01016 1.9031,0.01122 1.08601,0.705549 1.08685,0.705558 1.086,-0.45957 1.08682,-0.458767 1.25213,-0.05064 1.86119,0.859791 0.0316,-0.0025 -0.0308,0.03081 0.47696,0.772013 0.47775,0.772792 1.22445,-0.02298 1.22444,-0.02298 -1.3953,-1.055976 -1.39529,-1.055952 -0.19933,0.199332 -2.02017,-1.998829 -0.99823,-1.474373 -2.60865,0.08222 -2.60867,0.08312 V 74.64313 Z" />
    <path
       style="fill:#e6e6e6;stroke-width:0.724248"
       d="m 183.01066,45.125339 -1.27033,0.243604 -1.27109,0.242842 -0.53393,0.05531 -0.53313,0.05531 -1.09075,2.611034 -1.09076,2.610264 0.40655,1.620715 0.40656,1.619929 -2.37454,1.1501 -2.37372,1.149297 -0.43426,-0.268145 -0.43424,-0.268136 -0.77361,2.895805 -0.77278,2.896574 1.72118,1.127944 1.7212,1.127149 V 66.447 68.898246 l 1.26715,0.110798 1.26795,0.109888 0.72375,0.14005 0.72455,0.140058 3.25885,1.532138 3.25963,1.532139 0.23413,-1.058352 0.23414,-1.058337 h 0.54894 0.54816 l 0.94364,1.763116 0.94365,1.763117 2.0518,0.849507 1.7133,0.709499 c 0.0123,-0.03195 0.0279,-0.06448 0.049,-0.09639 -0.0357,-0.04548 -0.0752,-0.09977 -0.12109,-0.164524 -0.0846,-0.119549 0.27427,-0.514264 0.34407,-0.597988 0.0175,-0.02106 0.0352,-0.04039 0.053,-0.05851 l -0.0561,-0.908061 -0.30612,-2.172835 -0.30692,-2.172843 -0.0672,-1.086015 -0.0665,-1.086819 0.51652,-1.629425 0.51652,-1.629433 h -2.13647 -2.13644 l -0.4572,-0.457178 -0.45719,-0.457193 1.06072,-1.514743 1.06071,-1.514728 V 59.321993 58.75882 h -2.22821 -2.22819 l -2.11746,-2.116674 -2.11668,-2.117469 V 53.02102 51.51656 h 0.65333 0.65338 l 0.75143,-2.157004 0.75222,-2.156234 -0.69291,-0.427925 -0.6929,-0.428711 0.37731,-0.61064 z"
       id="presidentefiguereido" />
    <path
       id="urucara"
       style="fill:#e6e6e6;stroke-width:0.724248"
       d="m 181.90407,41.376848 -0.96421,1.543996 -0.96341,1.543217 1.81213,-0.454825 1.81296,-0.455587 0.4991,2.95194 0.49833,2.95117 -1.52187,1.619928 -1.52184,1.619937 v 0.560805 0.561592 l 1.98933,2.107988 1.98932,2.10798 h 2.25905 2.25826 l 1.84141,1.448275 1.84143,1.448308 h 0.81392 0.81391 l 0.41684,1.08681 0.41686,1.086025 h 0.87246 0.87166 l 1.404,1.350997 1.40401,1.351792 1.06544,1.545594 1.06546,1.545577 h 0.90805 0.90726 l 1.12401,2.172834 1.12317,2.172843 h 0.70556 0.70633 v 0.789398 0.788619 l 1.62946,1.329644 1.62941,1.330422 -1.26714,0.492797 -1.26796,0.493574 v 0.647012 0.646236 h 0.70794 0.70714 l 1.18647,-1.81056 1.18648,-1.810568 1.54637,-0.03162 1.54638,-0.03237 -2.85782,-1.506009 -2.85783,-1.506844 -1.10343,-1.10342 -1.10341,-1.10342 -0.24285,-1.811353 -0.24203,-1.812149 -2.03205,-1.897569 -2.03204,-1.898364 -0.51257,-1.615201 -0.51254,-1.614398 h -0.60351 -0.60431 l -1.64763,-2.716227 -1.64843,-2.716253 -1.32014,-2.506619 -1.32094,-2.506636 v -2.376928 -2.376116 l -1.57882,-1.81609 -1.57881,-1.816106 h -5.12713 z" />
    <path
       style="fill:#e6e6e6;stroke-width:0.724248"
       d="m 69.404002,78.579271 1.287974,-1.165603 1.113343,0.427228 1.113346,0.427236 v -0.701509 -0.701535 h 2.095251 2.095253 l 0.416881,1.086385 0.416879,1.086359 h 1.471218 1.471224 v -0.603536 -0.603553 l 2.694115,-2.694086 2.694114,-2.69413 1.77245,0.444846 1.772449,0.444878 3.138011,-0.926563 3.138033,-0.926555 v -0.850761 -0.85077 l 1.063174,-0.407973 1.06317,-0.407981 0.467044,0.755713 0.467062,0.755713 1.366767,-0.357426 1.36675,-0.3574 v 0.656436 0.656436 h 0.72424 0.72425 v -3.983361 -3.983345 h -0.56309 -0.56312 l -1.56208,1.094128 -1.562106,1.094161 -0.453612,-0.733983 -0.45363,-0.733974 -1.462963,0.782957 -1.462993,0.782965 -6.242899,0.294136 -6.242924,0.294135 -0.478022,-0.773468 -0.478019,-0.773453 -3.179009,-0.177233 -3.179005,-0.177234 -0.211324,-5.121194 -0.211313,-5.121194 -2.866731,0.384522 -2.866726,0.384506 v -0.801025 -0.800992 l -2.061769,-1.066187 -2.061768,-1.066179 -1.56449,0.409105 -1.564485,0.409136 L 59.848363,50.77821 57.65181,49.868362 56.775342,48.649646 55.89888,47.430939 53.545083,46.270114 51.191281,45.109288 v 0.354229 0.354221 l 0.696567,1.301556 0.696573,1.301538 2.20041,0.911446 2.200421,0.911437 0.08354,1.179582 0.08354,1.179549 0.1416,0.724256 0.141601,0.724239 1.183471,2.597196 1.183459,2.59722 -0.337513,2.83462 -0.337512,2.834654 -0.749022,4.209576 -0.749032,4.209561 -0.382139,0.995843 -0.382143,0.995858 2.867732,1.463016 2.867739,1.463007 0.462606,1.205507 0.462597,1.205513 2.295123,-0.459009 2.295126,-0.459018 z"
       id="japura"
       inkscape:label="#japura" />
    <path
       style="fill:#e6e6e6;stroke-width:0.724248"
       d="m 189.89625,80.667398 1.75299,-1.991694 0.0227,-0.642859 0.0229,-0.642858 -2.54516,-2.174022 -2.54517,-2.174014 -2.52456,-0.226553 -2.52457,-0.22652 v 1.882452 1.882468 l 2.58336,3.152633 2.58336,3.152624 h 0.71049 0.7105 z"
       id="riopretodaeva" />
    <path
       style="fill:#e6e6e6;stroke-width:0.724248"
       d="m 82.79411,81.784485 3.761757,-0.874579 0.315578,-2.927723 0.315567,-2.927719 -0.5009,-0.572965 -0.5009,-0.572965 -2.287798,2.340006 -2.287799,2.34003 v 0.509274 0.509262 l -0.949985,0.364549 -0.949981,0.364539 -2.845218,-1.31575 -2.845217,-1.315746 -0.477178,0.772099 -0.477184,0.772101 -1.10651,-0.424607 -1.106506,-0.424597 -0.85877,1.034738 -0.858767,1.03476 0.986877,0.271853 0.986872,0.271844 2.172739,0.746048 2.172741,0.746021 1.789406,0.07704 1.789416,0.07704 z"
       id="tocantins"
       inkscape:label="#tocantins" />
    <path
       style="fill:#e6e6e6;stroke-width:0.724248"
       d="m 205.36431,82.829829 0.68381,-1.277712 -0.96951,-1.325884 -0.9695,-1.325878 -2.25337,0.494927 -2.25335,0.494921 -1.01685,-0.843915 -1.01684,-0.843886 -1.51529,0.236654 -1.51531,0.236648 2.17672,2.37336 2.17675,2.373378 1.75455,-0.440374 1.75457,-0.440364 0.48386,0.782922 0.48388,0.782923 h 0.65604 0.65602 z"
       id="silves" />
    <path
       style="fill:#e6e6e6;stroke-width:0.724248"
       d="m 149.11284,82.115883 0.95161,-1.991685 1.80383,-0.250442 1.80382,-0.25047 0.83144,-0.682207 0.83141,-0.682213 1.51185,-0.291137 1.51185,-0.291161 0.98676,1.408797 0.98677,1.408796 2.24701,-0.449393 2.24697,-0.449401 2.02756,0.670269 2.02754,0.670241 1.29755,-0.283675 1.29754,-0.283685 -0.39893,-1.256882 -0.39892,-1.2569 1.43737,-4.297112 1.43738,-4.29712 0.0177,-2.376526 0.0178,-2.376534 -1.26741,-0.457128 -1.26744,-0.45712 -1.14495,-1.14969 -1.14496,-1.149707 1.32332,-2.172736 1.32328,-2.172744 0.004,-1.141161 0.004,-1.141202 -1.75539,-1.649115 -1.75544,-1.649131 -2.59038,0.854908 -2.59039,0.8549 -0.31409,1.573288 -0.31408,1.573273 -0.42015,2.49596 -0.42017,2.495943 1.59547,3.84939 1.59549,3.849375 -0.83019,0.830228 -0.83024,0.830211 -1.07077,-0.888658 -1.07076,-0.888658 -1.49478,0.799992 -1.49479,0.799976 v -0.436914 -0.43693 l -1.99169,1.340583 -1.99165,1.340543 -2.74049,1.243633 -2.74051,1.2436 h -1.08728 -1.08729 l -1.771,1.160424 -1.77101,1.160416 -3.45429,-0.426901 -3.45429,-0.4269 -1.68802,-0.01229 -1.688,-0.01229 -1.20897,0.762112 -1.20897,0.762096 1.54547,-0.418838 1.54549,-0.418814 0.46,1.832732 0.45999,1.832738 h 0.6677 0.6677 l 0.44761,-0.724243 0.44761,-0.724244 h 1.76787 1.76787 v 0.633719 0.633698 l 2.17273,0.434555 2.17274,0.434545 v 1.051393 1.051364 l 1.26744,0.331205 1.26743,0.331223 0.8658,0.08403 0.86578,0.08403 0.95163,-1.991685 z"
       id="novoairao"
       inkscape:label="#novoairao" />
    <path
       style="fill:#e6e6e6;stroke-width:0.724248"
       d="m 174.00753,83.29371 -0.6442,-0.272515 -0.68753,-0.890107 -0.68752,-0.89006 -1.55352,0.834055 -1.5535,0.834092 2.17275,0.928645 1.8943,1.055208 1.62371,0.336334 1.09214,-0.397607 -1.35289,-1.158439 z"
       id="iranduba"
       sodipodi:nodetypes="cccccccccccc" />
    <path
       style="fill:#e6e6e6;stroke-width:0.724248"
       d="m 101.21793,82.115883 1.62031,-2.715939 1.79879,-1.752423 1.79878,-1.752448 0.96283,1.31673 0.96281,1.316715 1.10103,-0.913781 1.10105,-0.913764 -0.4042,-0.653994 -0.40421,-0.653994 -0.59829,0.369757 -0.59832,0.369781 -0.43445,-1.132148 -0.43445,-1.132138 -1.3983,0.443813 -1.3983,0.443796 -0.59695,-1.012385 -0.59693,-1.012394 -1.64454,-0.863463 -1.64451,-0.86347 -0.659228,0.407433 -0.659237,0.407432 -0.454909,-0.736048 -0.454908,-0.736072 h -0.681503 -0.68151 v 0.910037 0.910019 l -2.885578,0.90058 -2.885578,0.900597 h -1.304705 -1.304703 l -0.012,1.629564 -0.012,1.629532 1.124118,0.882283 1.124132,0.882275 2.411336,0.02303 2.411352,0.0231 -0.477227,-2.172737 -0.477209,-2.172744 h 2.053084 2.053059 l 0.793384,2.534856 0.7934,2.534859 h -1.314931 -1.314954 l -0.749721,1.400891 -0.749729,1.400873 v 1.133985 1.133975 h 1.751538 1.751558 l 1.620289,-2.715909 z"
       id="fonteboa"
       inkscape:label="#fonteboa" />
    <path
       style="fill:#e6e6e6;stroke-width:0.724248"
       d="m 213.48493,76.82007 -1.15562,1.763912 -1.15563,1.764678 -1.94662,0.48804 -1.94662,0.488832 -0.53864,0.847928 -0.53948,0.847955 -0.0112,1.393694 -0.0112,1.393711 1.6761,-1.574836 1.67611,-1.574855 h 1.01642 1.0172 l 1.65236,-1.923664 1.65236,-1.922891 v -0.574259 -0.573464 l 1.72039,0.59957 c 0.0112,-0.02532 0.0261,-0.04925 0.038,-0.06719 0.0468,-0.05981 0.10314,-0.107758 0.16769,-0.147859 0.0655,-0.04408 0.13515,-0.08222 0.20883,-0.111576 0.0806,-0.03277 0.16118,-0.06621 0.24124,-0.100449 0.0824,-0.03581 0.16612,-0.0694 0.24203,-0.117852 0.0608,-0.03933 0.12093,-0.0794 0.16927,-0.134543 0.0283,-0.03384 0.0281,-0.04286 0.0206,-0.08852 -0.006,-0.03384 -0.0121,-0.06973 -0.0356,-0.09662 -0.0467,-0.05015 -0.10045,-0.09189 -0.15424,-0.134552 -0.0299,-0.02303 -0.0594,-0.04793 -0.0901,-0.07038 l 0.006,0.03237 -1.96006,-0.204076 z"
       id="path5201" />
    <path
       style="fill:#e6e6e6;stroke-width:0.724248"
       d="m 227.90301,73.932976 -2.05261,1.061516 -2.05262,1.0615 -3.36167,-0.273692 -3.36169,-0.27447 0.16531,0.8598 0.0751,0.389971 c 0.10943,0.05105 0.21023,0.120302 0.30849,0.190614 0.0803,0.06064 0.15581,0.126447 0.22859,0.195374 0.004,8.19e-4 0.008,8.19e-4 0.0112,0.0033 0.0634,0.0222 0.11679,0.06154 0.1606,0.111576 0.0343,0.03859 0.0643,0.08054 0.0885,0.125817 0.0207,0.03941 0.0362,0.08211 0.0499,0.124137 0.029,0.08785 -0.004,0.144344 -0.0499,0.155011 -0.0121,0.02008 -0.0237,0.04015 -0.038,0.05851 -0.0417,0.05375 -0.10561,0.109102 -0.15741,0.151833 -0.0906,0.0748 -0.18728,0.139754 -0.28554,0.204084 -0.14204,0.08885 -0.2873,0.173292 -0.43346,0.255485 -0.0488,0.02802 -0.0969,0.0576 -0.14083,0.09268 l 0.0112,0.0041 2.19499,0.765651 1.42613,-0.373337 1.42615,-0.372559 v 0.656526 0.655731 l 1.63022,0.05773 1.62943,0.05691 -0.90568,0.365431 -0.90489,0.364659 v 1.02669 1.0259 h -1.32804 -1.3273 l 0.0941,1.279816 0.0941,1.280598 0.55213,0.89224 0.55051,0.892221 h 0.53075 0.53075 l 2.00832,-4.095711 8.2e-4,-8.19e-4 2.00831,-4.095743 0.31323,-2.439398 z"
       id="parintins" />
    <path
       id="careiro"
       style="fill:#e6e6e6;stroke-width:0.724248"
       d="m 177.15895,84.831966 0.80524,1.504435 0.80522,1.504481 0.0673,-0.02611 -0.50148,2.55329 -0.44296,1.767066 -0.65098,-0.402599 -0.65097,-0.401826 -0.46353,1.458579 -0.46272,1.459369 h -0.61854 c -0.0123,0.01535 -0.0258,0.0296 -0.0411,0.04431 -0.10348,0.09931 -0.20575,0.199575 -0.30769,0.300563 v 8.18e-4 c -0.004,0.0037 -0.0101,0.0092 -0.0126,0.01333 -0.11024,0.135766 -0.22198,0.269279 -0.34565,0.393121 -0.009,0.0092 -0.0172,0.02335 -0.0261,0.03714 v 0.579798 1.370774 l -0.92387,0.355162 c -0.005,0.0137 -0.0112,0.02988 -0.0166,0.04505 -0.10146,0.241754 -0.2347,0.468974 -0.37017,0.692912 -0.0781,0.121378 -0.15559,0.24511 -0.24047,0.363059 l 1.18886,-0.251545 1.44908,-0.306107 2.35317,-0.0092 2.35396,-0.0102 v -1.002172 -1.0014 l 1.44514,-0.37808 1.44433,-0.37809 0.25629,-0.97371 0.25628,-0.974482 0.75617,-2.315203 0.75698,-2.315213 -1.19043,-0.238868 -1.36842,-1.332825 0.17956,-0.0055 -1.81056,-1.035387 -1.81056,-1.034615 -0.93099,-0.0262 z" />
    <path
       style="fill:#e6e6e6;stroke-width:0.724248"
       d="m 166.04352,88.45304 h 1.02714 v -0.724261 -0.724242 h -1.14464 -1.14463 l -1.13303,-2.884448 -1.13306,-2.884439 -1.70567,0.428101 -1.70568,0.428091 v -1.187617 -1.187609 l -1.13523,-0.435623 -1.13523,-0.435619 -1.58069,0.783134 -1.5807,0.783144 -1.44298,0.227265 -1.44296,0.227248 -0.92212,1.92394 -0.92213,1.92393 0.85181,1.869489 0.85179,1.869516 h 0.44684 0.44686 l 1.74534,-1.222488 1.74532,-1.222487 0.26116,0.783483 0.26114,0.783465 1.2907,-0.33752 1.29071,-0.337529 2.47686,1.07923 2.47686,1.079229 0.96455,-0.302705 0.96452,-0.302678 z"
       id="caapiranga" />
    <path
       style="fill:#e6e6e6;stroke-width:0.724248"
       d="m 189.52227,88.62932 1.81062,-1.262671 0.12934,-0.750094 0.12934,-0.750112 -1.2157,-0.08449 -1.2157,-0.08458 -2.71594,-0.527526 -2.71591,-0.527507 v 1.543248 1.54323 h 1.44851 1.44847 v 1.086382 1.086373 l 0.5432,-0.0037 0.54318,-0.0037 1.81061,-1.262671 z"
       id="path4613" />
    <path
       style="fill:#e6e6e6;stroke-width:0.724248"
       d="m 221.91335,89.353746 0.88639,-1.125774 -1.27926,-1.1549 -1.27923,-1.154889 -0.14221,-1.991685 -0.14219,-1.991685 h 1.4404 1.44036 V 81.21058 80.486337 l -0.54318,-0.09347 -0.54319,-0.09336 -1.81061,-0.166867 -1.8106,-0.166838 -1.38229,-0.58557 -1.38228,-0.585559 0.43774,2.188672 0.43773,2.188677 -0.65856,0.658566 -0.65855,0.658557 0.88471,2.525112 0.88473,2.525095 0.59825,0.934767 0.59828,0.934767 1.5686,-0.464708 1.56861,-0.464718 z"
       id="barreirinha" />
    <path
       style="fill:#e6e6e6;stroke-width:0.724248"
       d="m 214.98818,79.836468 -1.97943,2.408975 -1.13821,1.138232 h -1.41271 l -1.17923,0.01783 -1.34029,1.597489 -0.4625,1.830151 -0.24994,-0.06573 -0.004,0.05461 c -0.009,0.107193 -0.0138,0.214496 -0.006,0.321937 0.004,0.10404 0.009,0.208236 0.0138,0.31246 l 1.03617,0.397846 1.44401,-0.775375 0.53041,-1.831364 1.37067,-0.411655 1.02981,0.912805 0.78315,1.945489 1.60645,1.570433 0.30374,-0.303745 0.64302,-0.589331 -0.69063,-1.74367 -0.8338,-1.921918 0.84118,-1.904781 z"
       id="uruourituba"
       sodipodi:nodetypes="cccccccccccccccccccccccc" />
    <path
       style="fill:#e6e6e6;stroke-width:0.724248"
       d="m 192.92803,77.28123 -0.53077,1.421399 -0.53073,1.421403 -1.51633,1.364441 -1.51711,1.36444 0.43583,0.704762 0.43586,0.704789 -0.38838,-0.110797 c -0.004,0.02528 -0.008,0.0501 -0.0123,0.07511 -0.004,0.02105 -0.009,0.03972 -0.0154,0.05773 v 0.166912 c 0,0.01646 -8.3e-4,0.0319 -0.004,0.0467 l 3.35299,0.240468 0.43345,0.647809 0.43347,0.64782 2.35396,1.024327 2.35397,1.023528 v 0.504662 0.504635 l -0.86534,0.535487 -0.86533,0.534724 2.49476,0.900918 2.49478,0.901736 0.54339,0.05461 0.54341,0.05617 V 90.626712 89.17842 h 1.37077 1.37077 l 0.41212,-1.074164 0.41211,-1.074136 0.2792,0.106853 c 1.5e-4,-0.01618 -3e-4,-0.03264 0.004,-0.049 0.017,-0.115881 0.0513,-0.227707 0.11312,-0.328263 0.0312,-0.05277 0.0645,-0.10438 0.10213,-0.152617 l -0.51967,-0.136059 -1.37237,-0.359115 v -0.716612 -0.71744 l -1.11369,0.427118 -1.11371,0.427944 -0.37098,-0.967385 -0.37097,-0.966575 -1.59304,0.284751 -1.59304,0.28555 -1.87859,-1.660287 -1.8778,-1.659488 -0.94601,-1.783649 z"
       id="itacoatiara" />
    <path
       style="fill:#e6e6e6;stroke-width:0.724248"
       d="m 177.94203,70.381466 -2.11903,0.423967 -2.11906,0.423967 -1.1414,3.489033 -1.14138,3.489811 0.46747,1.320164 0.46747,1.320152 1.46727,1.629435 1.4665,1.629425 h 1.63734 1.63732 l 1.83194,0.696865 1.83191,0.696056 0.44611,-0.721365 0.44612,-0.721383 4.75857,0.340131 0.59244,0.04275 c -0.004,-0.01379 -0.008,-0.02657 -0.0123,-0.04036 -0.0471,-0.03732 -0.0859,-0.105051 -0.0996,-0.204889 -0.0155,-0.110907 -0.034,-0.221612 -0.0562,-0.331416 l -0.32034,-0.09083 -1.7204,-0.490413 -2.75105,-3.02709 -2.75105,-3.027886 0.23099,-2.675118 0.23175,-2.675889 -1.6405,-0.747502 z"
       id="manaus" />
    <path
       style="fill:#e6e6e6;stroke-width:0.724248"
       d="m 163.39535,91.053059 0.84754,-1.021239 -2.38841,-0.510867 -2.38841,-0.510932 -0.89609,-0.721641 -0.89608,-0.721631 -1.0956,0.420424 -1.09558,0.420425 v 1.095281 1.095318 l 1.62955,0.347724 1.62954,0.347716 1.44852,0.306309 1.44848,0.306309 0.4545,0.08403 0.45452,0.08403 z"
       id="ariama" />
    <path
       style="fill:#e6e6e6;stroke-width:0.724248"
       d="m 128.42891,91.010816 -1.3431,-1.017423 0.33256,-0.951205 0.33256,-0.951214 -1.97081,-2.534857 -1.97083,-2.534858 -0.50762,-1.629564 -0.50762,-1.629563 1.31622,-0.01122 1.31626,-0.01122 -0.80771,-0.532081 -0.80771,-0.532102 -0.48956,-1.569822 -0.4896,-1.569847 -1.47121,-1.870334 -1.4712,-1.870325 h -1.39592 -1.39593 v -1.018563 -1.018573 l -1.44849,0.378795 -1.44851,0.378778 v -1.170831 -1.170846 l -1.26742,-0.110347 -1.26743,-0.110339 -0.78759,-0.08234 -0.78759,-0.08234 -1.20409,-1.204097 -1.20409,-1.204074 V 64.4837 63.587037 l -0.45736,0.457332 -0.45735,0.457358 -1.35326,-0.724241 -1.35327,-0.724256 v 3.949602 3.949618 l 0.4396,1.145585 0.43963,1.145602 h 2.09524 2.09526 v 0.571129 0.571096 l 2.9352,-0.02802 2.93517,-0.02802 1.22923,2.172744 1.22923,2.172744 0.5432,0.2414 0.54318,0.241424 v 1.028652 1.02864 l 1.27588,2.351167 1.2759,2.351159 1.95604,1.93157 1.956,1.931571 1.63684,1.146487 1.63682,1.146478 0.74417,-0.02307 0.74416,-0.02298 -1.34308,-1.017424 z"
       id="maraa"
       inkscape:label="#maraa" />
    <path
       style="fill:#e6e6e6;stroke-width:0.724248"
       d="m 57.415815,90.26371 1.95369,-1.810606 h 0.980607 0.980615 v -0.578759 -0.57875 l 2.405221,-0.869753 2.405222,-0.869725 h 2.604142 2.604152 l 0.276138,-0.82843 0.276152,-0.82842 3.405438,0.510666 3.405443,0.510693 0.01101,1.223057 0.01101,1.22304 0.702089,-1.086364 0.702056,-1.086382 0.01101,-0.905303 0.01125,-0.905303 h -2.302267 -2.30238 l -2.586282,-0.81315 -2.586281,-0.81315 -1.086372,-0.503007 -1.08637,-0.503008 -2.309482,0.491397 -2.30949,0.49135 -0.768555,-0.768545 -0.768564,-0.768562 v -0.984269 -0.984256 l -0.729801,0.45104 -0.729801,0.451048 -1.132547,-1.132565 -1.132547,-1.132549 h -0.658716 -0.658717 l -0.326583,1.629573 -0.326592,1.629544 -0.784084,4.345473 -0.784076,4.345481 -0.436089,1.629564 -0.436091,1.629536 h 0.771402 0.771401 z"
       id="santoantonio"
       inkscape:label="#santoantonio" />
    <path
       style="fill:#e6e6e6;stroke-width:0.724248"
       d="m 76.539896,90.499112 v -2.046008 l 1.629554,-0.05709 1.629551,-0.05709 -0.905306,-0.365312 -0.905309,-0.365302 v -0.946773 -0.946774 l -2.715921,-0.328511 -2.715922,-0.32852 -0.241414,0.611414 -0.24142,0.611377 H 71.047697 70.02168 v 2.390028 2.39 l 0.692417,0.68803 0.692415,0.688039 2.566691,0.05442 2.566693,0.05442 v -2.046017 z"
       id="amatura"
       inkscape:label="#amatura" />
    <path
       style="fill:#e6e6e6;stroke-width:0.724248"
       d="m 171.23507,92.445107 1.62955,-0.468395 v -1.410351 -1.410306 l 2.17013,-1.319752 2.17015,-1.319742 -0.48024,-0.480218 -0.48023,-0.480226 h -1.58183 -1.58183 l -2.20825,-0.769804 -2.20826,-0.769795 -0.35825,-1.369975 -0.35825,-1.369956 -1.92077,-0.482074 -1.92076,-0.482084 -0.40386,0.40384 -0.40383,0.403831 0.66548,2.036943 0.66548,2.036934 1.58269,0.714939 1.58269,0.714929 v 0.914616 0.914643 0.543173 0.543182 h -0.5949 -0.59492 l -1.26743,1.267442 -1.26743,1.267415 h 1.50023 1.50023 v 0.773068 0.773058 l 1.26742,-0.353489 1.26743,-0.353461 z"
       id="mabacapuru" />
    <path
       style="fill:#e6e6e6;stroke-width:0.724248"
       d="m 109.67416,90.899211 1.62955,-0.430418 V 89.82307 89.177347 h 1.37281 1.37281 l 1.34815,-2.724863 1.34815,-2.724882 1.44347,0.260307 1.44344,0.260315 -0.90531,-0.93941 -0.90529,-0.939391 v -1.303637 -1.303654 h -0.56548 -0.56545 l -0.77456,-2.05201 -0.77455,-2.05204 h -1.17837 -1.17834 l 0.42415,1.68992 0.42414,1.689887 h -0.72229 -0.72229 l 0.10055,1.217266 0.10056,1.217257 -1.80481,0.443601 -1.80482,0.443555 -0.73005,1.427432 -0.73002,1.427441 -1.62939,2.609847 -1.62938,2.609828 0.12903,2.087515 0.12904,2.087561 0.31225,0.602386 0.31225,0.602368 1.55023,-2.242164 1.55022,-2.242172 z"
       id="uarini" />
    <path
       style="fill:#e6e6e6;stroke-width:0.724248"
       d="m 156.90572,95.743167 0.74972,-1.400891 v -1.085159 -1.085178 l -1.44848,-0.459735 -1.44848,-0.459735 v -0.994835 -0.994809 l -0.80521,-0.497656 -0.80523,-0.497639 -0.5201,0.841539 -0.52013,0.841566 -1.14415,-0.439032 -1.14418,-0.439087 -0.43451,-1.731231 -0.43451,-1.73125 -2.88997,-0.865837 -2.88995,-0.865864 V 82.90661 81.934877 h -1.77462 -1.77464 l -0.69929,-1.24958 -0.69929,-1.249554 -2.54982,1.215925 -2.54986,1.215924 -0.22702,-1.588507 -0.22703,-1.588509 -1.24761,-0.23777 -1.24762,-0.237729 1.01629,3.376865 1.01628,3.376884 1.24889,1.380004 1.24889,1.380005 h 0.88544 0.88545 l 0.83481,1.005922 0.83482,1.005905 3.13364,0.789045 3.13365,0.789073 2.81948,2.852566 2.81951,2.852539 3.05257,0.05994 3.05253,0.06003 z"
       id="codajas" />
    <path
       style="fill:#e6e6e6;stroke-width:0.724248"
       d="m 174.4182,94.246271 c 5.9e-4,2.94e-4 8.1e-4,2.94e-4 0.004,8.18e-4 2.3e-4,-3.03e-4 6e-4,-5.97e-4 8.2e-4,-8.18e-4 z"
       id="path5315" />
    <path
       style="fill:#e6e6e6;stroke-width:0.724248"
       d="m 177.79888,87.72934 -0.83765,0.01122 -0.83766,0.01122 -1.0354,0.655743 -1.0354,0.654935 -0.17322,1.180144 -0.17325,1.180143 -0.87165,1.050446 -0.87166,1.050409 h -1.19915 -1.19833 l -1.24738,1.457006 -1.24738,1.456989 v 0.758561 0.758542 l 0.60511,-0.374137 0.60509,-0.374137 2.11114,0.647819 1.57167,0.482507 c 8.2e-4,-0.0037 0.004,-0.0083 0.006,-0.01122 0.0725,-0.127354 0.14954,-0.252124 0.22463,-0.37809 2.1e-4,-5.88e-4 6e-4,-8.18e-4 8.2e-4,-0.0037 0.005,-0.01379 0.009,-0.03043 0.0153,-0.04909 0.0238,-0.04293 0.0494,-0.08559 0.0751,-0.127353 l -0.0759,0.02923 1.42376,-2.317585 0.23651,-0.386005 c 8.1e-4,-0.0083 0.004,-0.01535 0.0112,-0.04413 0.0187,-0.07952 0.0381,-0.159457 0.0704,-0.234924 0.029,-0.06463 0.061,-0.127492 0.10517,-0.183488 0.0253,-0.03162 0.0526,-0.06104 0.0806,-0.09009 2.9e-4,-6.07e-4 5.8e-4,-8.28e-4 8.1e-4,-8.28e-4 0.0137,-0.02271 0.0274,-0.04551 0.0411,-0.06794 0.004,-0.0037 0.008,-0.01121 0.0112,-0.0159 -0.0522,-0.09291 -0.0163,-0.09852 0.0498,-0.07272 0.0248,-0.03383 0.0509,-0.06674 0.0784,-0.09887 0.0241,-0.02832 0.0502,-0.04137 0.0721,-0.04275 8.2e-4,-5.5e-5 8.2e-4,1.8e-5 0.004,0 l 0.66443,-1.081298 0.43662,-1.267139 0.43663,-1.267167 h 0.55526 0.55527 l 0.37888,-1.448273 z"
       id="path4593" />
    <path
       style="fill:#e6e6e6;stroke-width:0.724248"
       d="m 110.50676,96.682163 3.6822,-1.910416 0.71689,-0.863805 0.71689,-0.863823 0.19429,-1.75233 0.19428,-1.75233 2.00133,-1.53287 2.00133,-1.532851 -1.11352,-0.924139 -1.11353,-0.92414 -0.4525,0.45249 -0.45251,0.452519 -0.79741,1.589085 -0.79741,1.589123 -3.4477,1.894513 -3.4477,1.89454 -0.96626,1.417853 -0.96626,1.417834 -0.40692,1.629573 -0.4069,1.629554 h 0.5896 0.5896 z"
       id="alvaraes" />
    <path
       style="fill:#e6e6e6;stroke-width:0.724248"
       d="m 104.34328,98.902199 0.43702,-1.138829 -0.72166,-1.348408 -0.72164,-1.348425 v -2.65437 -2.654378 l 2.6378,-4.273563 2.63781,-4.273591 h 1.34555 1.34555 v -1.38815 -1.388124 l 0.90529,-0.323322 0.90534,-0.323337 -0.53875,-0.577537 -0.53876,-0.577545 -1.27187,1.149166 -1.27186,1.149148 -2.80954,0.234543 -2.80952,0.234541 -1.53595,3.05788 -1.53595,3.057897 -4.081125,0.01995 -4.081116,0.02023 -1.25489,1.915197 -1.254869,1.915197 1.176363,0.658318 1.176384,0.658336 -0.729038,1.362215 -0.729034,1.362225 v 1.435743 1.435743 l -0.84508,0.281708 -0.845071,0.28168 1.705888,1.589261 1.705877,1.589292 h 5.579923 5.579908 l 0.43702,-1.138833 z"
       id="jurua" />
    <path
       style="fill:#e6e6e6;stroke-width:0.724248"
       d="m 181.81747,99.678898 0.4169,-1.086355 h 2.11694 2.11695 l 0.45442,-1.810624 0.45444,-1.810615 h 2.53901 2.53898 l 0.63087,-1.659313 0.63089,-1.659322 1.1618,-0.964213 1.16182,-0.964232 -0.0112,-0.454494 -0.0112,-0.454514 -0.64419,-1.017524 -0.64421,-1.017534 -2.78487,1.649678 -2.78488,1.649679 -2.17274,0.112359 -2.17274,0.112378 -0.36211,2.514624 -0.36213,2.51465 -1.58499,0.695744 -1.58497,0.695725 -0.35794,1.368798 -0.35796,1.368825 -0.95405,-0.574007 -0.95408,-0.574034 0.994,1.225402 0.99398,1.225401 h 0.5581 0.55806 l 0.4169,-1.086372 z"
       id="careio_de_varzea" />
    <path
       style="fill:#e6e6e6;stroke-width:0.724248"
       d="m 56.364789,99.985492 1.457051,-0.779788 -0.430874,-1.122851 -0.430876,-1.122843 1.209592,-0.884471 1.2096,-0.88448 -0.54603,-0.883506 -0.546025,-0.883478 -1.13627,0.436016 -1.136269,0.436035 -0.601086,-0.92984 -0.60109,-0.929839 -0.668797,1.039395 -0.668799,1.039405 -0.47023,2.506551 -0.470232,2.506533 0.957969,0.607389 0.957966,0.60737 0.228673,0.0112 0.228675,0.0112 1.457052,-0.77978 z"
       id="tabatinga"
       inkscape:label="#tabatinga" />
    <path
       style="fill:#e6e6e6;stroke-width:0.724248"
       d="m 203.93228,101.36825 1.3539,-0.84556 -0.82054,-1.016983 -0.82057,-1.016983 -1.36505,-1.494221 -1.36508,-1.494211 1.18401,-0.662611 1.18401,-0.662593 v -0.665534 -0.665526 l -1.15947,0.444925 -1.15946,0.444934 -0.5366,-0.868236 -0.5366,-0.868209 -2.83047,-0.142669 -2.83049,-0.142651 0.20648,0.981551 0.20647,0.981542 -0.93073,1.191194 -0.9307,1.191203 1.08635,-0.769325 1.0864,-0.769326 1.4466,0.04505 1.44663,0.04496 0.0207,0.724243 0.0207,0.72426 1.26504,1.889631 1.26504,1.889622 -0.45604,1.188423 -0.45605,1.18841 h 1.53581 1.5358 l 1.35393,-0.84554 z"
       id="novaolindadonorte" />
    <path
       style="fill:#e6e6e6;stroke-width:0.724248"
       d="m 151.01085,102.9551 0.24712,-0.74133 h 0.91517 0.91523 l 1.67011,-1.44848 1.67011,-1.448504 1.51875,-1.9e-5 1.51873,-1.8e-5 1.92721,-2.415355 1.92721,-2.415354 -0.5374,-0.869496 -0.53738,-0.869495 -1.933,-0.350529 -1.93302,-0.350519 v 3.330807 3.330825 l -2.08314,-0.457546 -2.08312,-0.457529 -0.99491,0.979088 -0.9949,0.979106 -3.76902,1.868298 -3.76903,1.86833 0.50992,0.51324 0.50992,0.51323 2.52916,-0.40871 2.52919,-0.40872 z"
       id="path4581" />
    <path
       style="fill:#e6e6e6;stroke-width:0.724248"
       d="m 158.03173,111.44792 3.60708,-3.07805 3.62122,-3.69185 3.62123,-3.69185 1.03353,-0.33425 1.03355,-0.33425 -0.53309,-0.862572 -0.53311,-0.862555 h -1.76786 -1.76788 v -1.405754 -1.405755 l 0.72981,-0.451047 0.7298,-0.451029 -0.94464,-0.94465 -0.94465,-0.944641 -1.65792,-0.526211 -1.65794,-0.526211 0.81405,1.521084 0.81405,1.521074 -2.01932,2.530794 -2.01931,2.530773 -1.83073,4e-5 -1.83072,2e-5 -1.24022,1.4485 -1.24024,1.44848 h -1.09347 -1.09344 v 0.69144 0.69143 l -2.71593,0.49006 -2.71592,0.49005 -0.55867,0.31932 -0.55867,0.31932 4.12373,4.29317 4.12374,4.29316 h 0.43246 0.43244 z"
       id="beruri" />
    <path
       style="fill:#e6e6e6;stroke-width:0.724248"
       d="m 95.301846,114.97054 0.83317,-1.0039 4.316274,0.16077 4.31628,0.16077 1.43274,-1.3348 1.43273,-1.33476 -0.41489,-1.0812 -0.4149,-1.08119 h 0.80174 0.80173 l 0.026,-0.9053 0.026,-0.90531 1.70434,-2.08401 1.70433,-2.08401 0.73846,0.45639 0.73846,0.4564 1.82986,-2.17469 1.82988,-2.17467 h 0.63551 0.63549 l 2.08164,-2.172738 2.0816,-2.172736 h 1.43703 1.43702 l 1.30981,-1.185357 1.30979,-1.185347 -2.88315,-2.798004 -2.88315,-2.798013 h -1.33542 -1.3354 l -1.10411,1.267442 -1.10412,1.267433 -0.68494,2.172737 -0.68493,2.172745 -3.93612,2.085824 -3.9361,2.085823 -3.44017,2.154091 -3.44018,2.15408 v 1.38008 1.38008 l -1.551963,1.26035 -1.551954,1.26035 -1.143858,1.26742 -1.143857,1.26744 h -0.813006 -0.81318 l -1.216065,1.34374 -1.216087,1.34375 0.457063,1.19112 0.457084,1.19111 h 0.920204 0.920192 l 0.833178,-1.00391 z"
       id="tefe" />
    <path
       id="coari"
       style="fill:#e6e6e6;stroke-width:0.724248"
       d="m 126.6269,71.433485 -0.0569,1.207031 -0.057,1.20704 -0.90488,0.336169 -0.68025,0.563976 -1.48784,-0.302149 0.53865,1.752809 0.53866,1.752825 0.81709,1.023537 0.8163,1.022746 -0.90488,0.304526 -0.90568,0.305325 v 0.74034 0.741158 l 2.17283,2.743148 2.17284,2.743139 v 1.185688 1.186477 l 1.08602,0.41683 1.08683,0.416849 v 0.97291 0.972928 l 1.26715,0.737977 1.26793,0.737996 -1.9917,0.02215 -1.99247,0.02206 -0.023,-0.90488 -0.023,-0.90568 -1.48548,1.991685 -1.48626,1.991703 -1.56931,0.0037 -1.56852,0.0037 -2.31442,2.168884 -2.31522,2.169648 h -0.34566 -0.34567 l -2.17283,2.17285 -2.17203,2.17284 h -1.02829 -1.02827 l -1.74333,3.3949 -1.74412,3.3957 0.21355,0.94997 0.21278,0.94998 h -1.48065 -1.47994 v 0.76725 0.76726 l 0.71506,-0.44216 0.71425,-0.44215 1.59462,1.48545 1.59463,1.48547 h 1.26875 1.26952 l 0.45482,0.73641 0.45482,0.73561 0.55528,-0.34251 0.55526,-0.34325 2.11035,0.63118 2.11115,0.6312 0.21672,0.0625 0.21751,0.0616 2.13646,-1.10501 v 8.2e-4 l 2.13644,-1.10501 v -0.6565 -0.65731 l 1.46255,-0.46352 1.46173,-0.46431 2.32074,-2.11983 2.32075,-2.11986 1.10581,-0.0665 1.10579,-0.0665 2.10324,-0.11469 2.10243,-0.11391 1.15643,-2.30651 1.15642,-2.30572 1.27031,-0.3433 1.27033,-0.34246 -0.42557,-1.10899 -0.42554,-1.10974 2.53274,-0.47538 2.53272,-0.4746 1.40085,-1.30511 1.40162,-1.305924 1.3771,-0.321928 1.37788,-0.322728 -1.92998,-0.796529 -1.93002,-0.797301 -0.42238,-1.308297 -0.42317,-1.309088 -2.50347,-1.7006 -2.50347,-1.700618 -0.93811,0.318766 -0.93733,0.319538 -2.70199,-1.696637 -2.70121,-1.696665 h -0.68657 -0.6858 l -1.48231,-1.884143 -1.4815,-1.884124 -0.46352,-2.469448 -0.46352,-2.469466 -0.57266,-0.354349 -0.57347,-0.35436 0.38837,-2.896591 0.38837,-2.896575 h -1.12083 -1.12162 l -0.36542,-0.905676 z" />
    <path
       style="fill:#e6e6e6;stroke-width:0.724248"
       d="m 80.885371,121.73666 v -0.756 l 0.905315,0.12599 0.905299,0.12597 2.353803,-0.97731 2.3538,-0.97729 v -0.75339 -0.75339 l 1.448484,-0.90459 1.448501,-0.90459 v -1.02468 -1.02465 l 1.876627,-2.23026 1.876637,-2.23024 0.529032,0.32697 0.52904,0.32698 1.112098,-1.23034 1.112076,-1.23033 1.551975,-1.26035 1.551972,-1.26035 v -1.41958 -1.4196 l 1.26742,-0.73819 1.26743,-0.73823 -5.250785,-0.022 -5.250792,-0.0221 v 1.08637 1.08635 l -0.543185,0.0576 -0.543174,0.0576 -3.742464,0.24698 -3.74245,0.24704 -1.563158,0.83656 -1.56314,0.83657 -1.393672,1.39367 -1.393674,1.39374 v 0.62658 0.62657 l -1.494357,1.89976 -1.49436,1.89978 -0.135188,4.71612 -0.135199,4.71613 3.078045,-1e-5 h 3.078044 z"
       id="carauari" />
    <path
       style="fill:#e6e6e6;stroke-width:0.724248"
       d="m 49.923852,123.15364 1.267429,-2.22687 v -1.02766 -1.02767 h 0.669792 0.66979 l -0.235591,-2.53487 -0.23559,-2.53485 h 1.014291 1.014293 v -0.64575 -0.64572 l 1.841627,-0.46223 1.841628,-0.46221 0.428392,-1.11636 0.428383,-1.11635 2.437588,-2.58461 2.437583,-2.5846 v -1.02005 -1.02004 l 1.448493,-2.998036 1.448491,-2.99803 v -1.742383 -1.742383 l 1.448493,-0.378798 1.44849,-0.378788 v -2.401575 -2.401592 l -1.46415,-0.464708 -1.464149,-0.464709 -2.157081,0.954827 -2.157081,0.954809 v 0.547456 0.547457 l -0.905307,0.02418 -0.905308,0.02409 -1.629553,1.359421 -1.629553,1.35943 v 0.504579 0.50458 l 1.026429,-0.393866 1.026432,-0.393893 0.422059,1.099878 0.422064,1.099859 v 0.613289 0.613281 l -1.138103,1.138103 -1.138104,1.138103 h 1.138104 1.138103 v 0.724251 0.724252 h -0.801734 -0.801733 l 0.450589,1.174196 0.450584,1.1742 -1.727857,1.54173 -1.727857,1.54171 -1.542229,1.26034 -1.542225,1.26035 v 1.29463 1.29461 l -1.300775,1.11377 -1.300782,1.11376 -0.920531,4.29798 -0.920532,4.29797 -0.97238,1.9364 -0.972379,1.93637 0.41741,0.41742 0.417413,0.41742 0.784605,-0.004 0.784597,-0.004 z"
       id="saopaulo"
       inkscape:label="#saopaulo" />
    <path
       style="fill:#e6e6e6;stroke-width:0.724248"
       d="m 195.84949,125.39847 0.89536,-1.09518 -0.0881,-4.74155 -0.088,-4.74151 1.00153,-1.60373 1.00154,-1.60372 1.27717,-0.40536 1.27716,-0.40536 0.99803,-1.94035 0.99803,-1.94033 1.12981,-2.71593 1.1298,-2.71592 h -0.27343 -0.27343 l -1.01037,1.01036 -1.01034,1.01036 -1.93837,-0.37054 -1.93835,-0.37055 v -1.43339 -1.433385 l -1.14314,-1.935174 -1.14315,-1.935165 -4.29236,-0.09864 -4.29239,-0.09864 -0.42672,1.70026 -0.42673,1.70025 -2.28554,0.221851 -2.28551,0.221861 0.18777,0.925462 0.18779,0.92547 -1.12994,0.4336 -1.12994,0.43359 -1.79163,-1.68316 -1.79163,-1.683149 -2.44322,0.06932 -2.44322,0.06913 -1.3412,1.212879 -1.3412,1.21289 -2.11642,1.70705 -2.11639,1.70704 1.97359,2.58753 1.97361,2.58751 4.12614,-0.46267 4.12618,-0.46266 0.72423,-0.52566 0.72425,-0.5257 1.83629,-0.43677 1.83628,-0.43678 1.78494,2.91009 1.78494,2.9101 -0.21279,1.04806 -0.21282,1.04806 h 1.19665 1.19662 l -0.46371,1.8475 -0.46369,1.84747 1.52098,2.13601 1.52096,2.136 0.26282,1.99155 0.26279,1.99152 0.0499,0.52765 0.05,0.52765 1.99169,-0.88094 1.99168,-0.88096 0.89536,-1.09518 z"
       id="borba" />
    <path
       style="fill:#e6e6e6;stroke-width:0.724248"
       d="m 54.088461,128.28632 0.575784,-0.93166 1.522627,0.39818 1.522624,0.39818 v -0.57792 -0.57793 l 1.922977,-0.48264 1.92298,-0.48263 0.430818,0.58519 0.430826,0.58517 3.078045,0.0624 3.078047,0.0624 v -0.98576 -0.98573 l 1.766581,-0.67164 1.766581,-0.67166 0.877646,-1.63992 0.877649,-1.63989 0.161351,-4.12964 0.161344,-4.12962 1.539902,-2.16257 1.539898,-2.1626 v -1.07117 -1.07115 l 1.267431,-0.46461 1.267429,-0.46461 1.99664,-1.11025 1.99665,-1.11024 3.79732,-0.27299 3.797333,-0.27298 -0.248907,-1.29074 -0.248883,-1.290729 -1.747624,-2.076934 -1.747624,-2.076943 0.431435,-0.698106 0.431448,-0.698069 0.937019,0.777636 0.937002,0.777646 0.354688,-2.372027 0.354677,-2.372036 -0.786473,-0.500387 -0.786476,-0.500369 1.229197,-2.577661 1.229208,-2.57768 h 1.82233 1.82234 l 0.09044,-1.448475 0.09065,-1.448503 0.09055,-0.78262 0.09065,-0.782638 1.267427,-0.926765 1.267427,-0.926784 V 77.121375 75.726852 H 96.983525 95.6996 l 0.01648,1.796915 0.01658,1.796884 -2.534869,0.534567 -2.534859,0.534577 -0.688021,-0.676051 -0.688067,-0.676035 h -0.941713 -0.941524 v 1.448505 1.448475 l -1.086372,0.09065 -1.086359,0.09046 -0.724254,0.181051 -0.724243,0.181061 -1.384829,0.09064 -1.384837,0.09046 -0.4979,2.946999 -0.497887,2.947009 -1.195315,0.49317 -1.195325,0.493162 -0.07242,0.905312 -0.07242,0.905303 -0.108633,1.090758 -0.108654,1.090776 -4.888662,-0.185464 -4.888661,-0.185446 -0.23658,2.068485 -0.236578,2.068494 -1.27344,2.276988 -1.273436,2.276983 -0.491791,1.97707 -0.491791,1.97707 -2.162607,2.21232 -2.162608,2.21231 v 0.38889 0.38888 l -0.92255,0.85359 -0.922553,0.85356 -0.965658,0.20693 -0.965666,0.20694 -0.827705,0.87942 -0.827712,0.87945 -0.231672,2.17275 -0.231674,2.17274 -0.673633,0.24141 -0.673636,0.2414 v 0.96733 0.96733 l -1.267431,2.22685 -1.267432,2.22685 -0.445511,0.004 -0.445515,0.004 -2.012933,1.58336 -2.012925,1.58338 1.303969,0.45742 1.303969,0.45739 3.220476,-0.48875 3.220482,-0.48873 0.575785,-0.93164 z"
       id="jutal"
       inkscape:label="#jutal" />
    <path
       style="fill:#e6e6e6;stroke-width:0.724248"
       d="m 43.597924,128.90386 2.596479,-2.27974 -0.393417,-1.02523 -0.393424,-1.02525 0.960379,-1.94579 0.960379,-1.9458 0.962762,-4.34548 0.962764,-4.34549 1.286991,-1.44849 1.286984,-1.44848 -0.06244,-0.36212 -0.06244,-0.36212 0.471526,-1.44849 0.471537,-1.44851 2.531725,-1.63621 2.531725,-1.63621 v -0.66591 -0.66592 l -3.294364,0.22023 -3.294363,0.22026 -1.049035,1.35763 -1.04904,1.35765 0.423733,1.44848 0.423735,1.44851 -0.047,1.52629 -0.04701,1.5263 -1.818546,3.18131 -1.818552,3.18129 -0.01317,1.08636 -0.01316,1.08637 -1.08191,2.07447 -1.081906,2.07446 v 1.66346 1.66344 l -2.228307,1.875 -2.228342,1.875 -0.849741,0.0112 -0.849739,0.0112 1.086369,0.70206 1.08637,0.70206 0.517983,0.0112 0.517984,0.0112 2.596489,-2.27975 z"
       id="benjamin"
       inkscape:label="#benjamin" />
    <path
       style="fill:#e6e6e6;stroke-width:0.724248"
       d="m 24.836141,135.81808 0.804091,-1.01324 h 1.144844 1.144846 l 0.478124,-0.77362 0.478123,-0.77361 1.054161,0.40452 1.05416,0.40452 1.724866,-1.86117 1.724865,-1.86115 0.950008,-0.19523 0.950007,-0.1952 1.448493,-0.57767 1.448493,-0.5777 1.991676,-1.83995 1.991677,-1.83994 v -1.99449 -1.9945 l 0.668522,-0.41318 0.66853,-0.41316 0.495494,-2.34549 0.495499,-2.3455 1.873857,-3.48756 1.873857,-3.48754 -0.776942,-2.05836 -0.776943,-2.05835 1.119828,-1.11984 1.119824,-1.11981 -1.751206,-1.45795 -1.751213,-1.457933 -2.638435,-0.02409 -2.638437,-0.02418 -0.390299,1.017113 -0.3903,1.0171 -5.08094,1.15563 -5.080942,1.15564 h -1.534907 -1.534907 l -2.305477,1.63136 -2.305476,1.63138 -1.448493,0.89597 -1.448491,0.89598 -2.682308,1.63383 -2.682309,1.63385 -0.462406,2.9002 -0.462414,2.90021 -1.873324,2.76051 -1.873323,2.76047 0.898982,2.48609 0.898974,2.48606 -0.437471,0.70786 -0.437479,0.70785 -3.1356381,1.38705 -3.1356476,1.38704 -0.4983271,0.80631 -0.4983345,0.80632 H 7.1868013 11.06805 l 0.791339,0.79132 0.79134,0.79135 1.478636,-0.79135 1.478632,-0.79127 h 0.77186 0.771859 v 1.08635 1.08637 l 0.724246,0.0907 0.724246,0.0905 0.663892,0.0905 0.663892,0.0905 0.551151,0.55115 0.551149,0.55117 1.500881,-0.44325 1.500882,-0.4432 z"
       id="atataianorte"
       inkscape:label="#atataianorte" />
    <path
       style="fill:#e6e6e6;stroke-width:0.724248"
       d="m 109.61333,138.2019 3.74147,-0.16547 1.46846,-1.32895 1.46849,-1.32897 0.22191,-1.91639 0.22189,-1.91637 1.43161,-8.2e-4 1.43161,-8.2e-4 0.7399,-2.17117 0.73988,-2.17117 1.2967,-1.43409 1.29671,-1.43408 0.41261,-1.64397 0.41262,-1.64395 h 0.66383 0.66382 l 0.45556,2.27775 0.45555,2.27773 2.07567,0.78348 2.07567,0.78348 -0.35386,0.92212 -0.35387,0.92215 h 0.70152 0.70154 v 2.17273 2.17275 h 5.10667 5.10667 l 1.12887,-2.71595 1.12886,-2.71592 3.74853,-4.34547 3.7485,-4.34547 1.19064,-1.8882 1.19065,-1.88818 -3.43181,-3.38021 -3.43182,-3.38019 -0.40561,0.40561 -0.4056,0.40564 -1.26946,-2.67515 -1.26945,-2.67515 -0.67197,1.20074 -0.67197,1.20079 h -0.96785 -0.96785 l -1.20289,2.53484 -1.20286,2.53486 h -3.06374 -3.06371 l -2.32076,2.1197 -2.32075,2.11966 -1.46188,0.46399 -1.46188,0.46399 v 0.65685 0.65683 l -2.19293,1.13401 -2.19291,1.13401 -2.69574,-0.53249 -2.69576,-0.53247 -0.72423,-0.11056 -0.72424,-0.11057 -0.5432,-0.20086 -0.54319,-0.20082 -0.54318,-0.10348 -0.54317,-0.10349 -3.59443,-1.75593 -3.59442,-1.75595 h -3.43712 -3.437108 l -1.297294,1.09793 -1.29731,1.09788 -1.267417,-0.28748 -1.267441,-0.2875 v -0.76925 -0.76929 l -2.161171,2.45194 -2.161161,2.45193 -0.01167,0.47233 -0.01167,0.47234 -2.25594,0.78643 -2.25593,0.78642 -0.638867,-0.39484 -0.638859,-0.39483 0.742638,1.95328 0.742639,1.95329 -1.106952,1.22318 -1.106942,1.22318 v 0.48613 0.48617 h 1.41441 1.41441 l 1.844701,-0.8405 1.844692,-0.8405 v -0.68649 -0.68652 l 1.658526,0.41626 1.658525,0.41626 4.549617,2.06522 4.549608,2.06525 -1.1542,0.9579 -1.154219,0.95792 -5.597106,0.28902 -5.597122,0.28902 -0.905312,1.19611 -0.905303,1.1961 v 0.69809 0.69806 l 1.267431,-1.08853 1.267429,-1.08853 1.221209,-0.43174 1.221198,-0.43176 1.706379,1.34224 1.706383,1.34225 3.590625,1.13792 3.590634,1.13792 2.89698,-0.37723 2.89697,-0.37722 3.74148,-0.16547 z"
       id="tapaua" />
    <path
       style="fill:#e6e6e6;stroke-width:0.724248"
       d="m 205.4557,139.24992 v -0.62467 l -2.17274,-2.73404 -2.17275,-2.73404 0.0121,-1.16783 0.0123,-1.16786 1.64311,-1.55637 1.64308,-1.5564 4.25556,-9.66941 4.25557,-9.66943 4.23386,-8.509912 4.23386,-8.509884 h -0.41533 -0.41531 l -1.36422,0.730117 -1.36422,0.730098 -2.93365,-2.790705 -2.93365,-2.790696 v -0.83639 -0.836381 h -0.72424 -0.72424 v 1.104474 1.104474 l -2.17275,0.434536 -2.17273,0.434564 v 0.633717 0.633689 h -1.58693 -1.58691 l 1.40586,1.072629 1.40585,1.072601 -0.96718,0.637918 -0.96714,0.637918 0.10843,0.281156 0.10865,0.281148 -0.52966,1.380234 -0.52965,1.380234 1.42343,1.154623 1.42343,1.154623 0.46148,1.205495 0.46145,1.20549 -1.402,2.74995 -1.40199,2.74993 v 0.90798 0.90801 l -3.19483,3.10329 -3.19483,3.10328 -0.32562,8.32095 -0.32563,8.32098 2.43058,2.43058 2.43059,2.4306 -0.43714,1.74169 -0.43713,1.7417 h 2.25126 2.25125 v -0.62466 z"
       id="maues" />
    <path
       style="fill:#e6e6e6;stroke-width:0.724248"
       d="m 84.051262,136.31094 0.459164,-2.87145 0.811716,-0.50169 0.811709,-0.50164 4.437166,-0.1699 4.437145,-0.1699 1.267441,-0.0943 1.267431,-0.0942 v -0.72426 -0.72425 h -0.825975 -0.825992 l -3.11522,-1.5558 -3.115209,-1.55582 -3.610723,1.55328 -3.610726,1.55331 -1.139028,-0.4371 -1.139032,-0.43708 v -1.32825 -1.32827 l 0.724242,-0.44762 0.724244,-0.4476 v -1.40576 -1.40575 h -3.940607 -3.940615 l -0.475213,0.76893 -0.475224,0.76893 -1.740261,0.66165 -1.740261,0.66163 v 1.06322 1.06326 l -3.802292,-0.0739 -3.802291,-0.074 -0.532097,-0.7903 -0.532088,-0.79033 -0.01102,2.66876 -0.01102,2.66877 -0.70632,1.85778 -0.706322,1.85775 h 0.561472 0.561472 l 0.808064,-0.80804 0.808063,-0.80807 1.670675,1.17018 1.670671,1.17018 h 1.890882 1.890883 l 0.488028,0.48805 0.488031,0.48803 4.44431,-0.1814 4.444314,-0.18138 0.439151,0.59867 0.439151,0.59865 1.448497,0.81977 1.448488,0.81976 0.448051,-0.26054 0.448064,-0.26051 0.459161,-2.87147 z"
       id="itamarati" />
    <path
       style="fill:#e6e6e6;stroke-width:0.724248"
       d="m 22.945684,141.10579 v -1.66578 l 0.905307,-0.92034 0.905308,-0.92034 -1.972757,0.48714 -1.972758,0.48715 -3.177388,-1.53816 -3.177386,-1.53815 -1.196231,0.45904 -1.196231,0.45904 -0.89609,-0.72034 -0.896082,-0.72033 -3.0384596,0.0137 -3.0384596,0.0137 -0.3700761,0.96444 -0.3700844,0.96441 0.5115599,0.28796 0.5115515,0.28795 6.8803363,2.2243 6.880342,2.22433 1.448492,0.3239 1.448491,0.3239 0.905308,0.084 0.905307,0.084 v -1.66576 z"
       id="guajara"
       inkscape:label="#guajara" />
    <path
       id="ipixuna"
       style="fill:#e6e6e6;stroke-width:0.724248"
       inkscape:label="#ipixuna"
       d="m 42.609301,131.54594 -2.770819,0.14084 -2.770029,0.14157 -1.437218,0.22069 -1.436429,0.22069 -1.62231,1.71485 -1.621519,1.71406 -0.924661,-0.35119 -0.924661,-0.35199 -1.55033,0.57663 -1.55033,0.57583 -1.165121,2.33656 -1.16591,2.33736 v 0.96105 0.96105 l 1.629428,0.35435 1.629428,0.35437 1.810563,0.28475 1.810565,0.28555 1.460159,0.0989 1.460157,0.0981 4.147924,-4.22779 4.147133,-4.22861 0.421595,-2.10876 z" />
    <path
       style="fill:#e6e6e6;stroke-width:0.724248"
       d="m 40.071031,144.48802 -8.04e-4,8.2e-4 c 4.75e-4,9e-5 0.0011,-5e-5 0.0016,0 z"
       id="path4966" />
    <path
       style="fill:#e6e6e6;stroke-width:0.724248"
       d="m 38.395725,144.00316 c -0.148396,0.0304 -0.201861,0.0574 -0.204865,0.0822 0.01091,-8.2e-4 0.02125,-8.2e-4 0.03006,-0.004 0.04416,-0.0137 0.08898,-0.0275 0.133672,-0.0411 0.01378,-0.0123 0.02758,-0.0241 0.04113,-0.0365 z"
       id="path4964" />
    <path
       style="fill:#e6e6e6;stroke-width:0.724248"
       d="m 53.364319,138.42591 v 0.80207 0.80127 l -1.152463,-0.44217 -1.151674,-0.44135 -2.059727,1.46568 -2.058931,1.46649 -3.0358,1.07098 -3.035799,1.071 -0.592447,-0.0284 c -0.0016,0.004 -0.0039,0.004 -0.0063,0.008 5.96e-4,8.2e-4 10e-4,0.004 0.0016,0.004 0.0072,0.0208 -0.0322,0.0307 -0.04825,0.0459 -0.0044,0.004 -0.009,0.008 -0.01348,0.0123 0.0019,8.2e-4 0.004,0.004 0.0055,0.006 0.0051,0.008 0.0092,0.0162 0.01195,0.0245 0.01068,0.0112 0.01738,0.0234 0.01897,0.0395 0.0035,0.0348 -0.01102,0.0665 -0.03558,0.0949 -0.0046,0.0137 -0.0086,0.0277 -0.01271,0.0404 -0.0067,0.0212 -0.03764,0.0257 -0.05695,0.0363 -0.051,0.0302 -0.139244,0.0768 -0.189838,0.10359 -0.03387,0.0172 -0.06798,0.0344 -0.102041,0.0514 -0.02996,0.0154 -0.06234,0.0629 -0.09016,0.0441 -0.01485,-0.009 -0.02837,-0.0196 -0.04113,-0.0284 -0.03675,0.0138 -0.07372,0.0278 -0.110747,0.0411 l 3.371967,0.52522 7.700237,1.19913 1.161166,0.67866 1.160373,0.67789 0.543406,0.0222 0.542618,0.0223 v -1.08603 -1.08682 h 0.71505 0.714258 l 1.096305,-2.6229 1.095516,-2.62369 v -0.99744 -0.99823 H 55.53637 Z"
       id="envira"
       inkscape:label="#envira" />
    <path
       style="fill:#e6e6e6;stroke-width:0.724248"
       d="m 58.519166,127.56253 -0.477754,0.77359 -0.478546,0.77359 -1.135853,-0.43663 -1.136645,-0.43585 -0.543408,0.87881 -0.542615,0.87877 -1.32569,0.29189 -1.324898,0.29107 -4.0973,0.0371 -4.096511,0.0372 -0.471427,3.14259 -0.470636,3.14258 -1.716437,1.3502 -1.716437,1.35021 -1.853277,2.20211 -1.852487,2.2013 2.938508,0.45799 c -0.0085,-0.0157 -0.01378,-0.0326 -0.01422,-0.0507 -5.13e-4,-0.0184 0.0067,-0.0336 0.0182,-0.0474 v -8.2e-4 l 7.92e-4,-8.2e-4 c 6.91e-4,-8.2e-4 0.0016,-0.004 0.0024,-0.004 -0.0092,-0.008 -0.01794,-0.0168 -0.02452,-0.0292 -0.0057,-5.9e-4 -0.01133,-8.2e-4 -0.0166,-0.006 -0.0024,-8.1e-4 -0.0041,-0.004 -0.0063,-0.004 -0.0011,6e-4 -0.0022,8.2e-4 -0.0031,0.004 -6.83e-4,-0.004 -0.0017,-0.004 -0.0025,-0.008 -0.0625,-0.0502 -0.08739,-0.13822 -0.13289,-0.20564 0.02497,-0.0155 0.04998,-0.0305 0.07594,-0.0443 0.0031,-0.004 0.0074,-0.004 0.01193,-0.006 h 7.92e-4 c 0.03926,-0.0206 0.07976,-0.0393 0.120233,-0.0569 0.0361,-0.016 0.07046,-0.0374 0.109161,-0.0452 0.05778,-0.0121 0.133548,-0.0523 0.176388,-0.0121 0.002,8.2e-4 0.0036,0.004 0.0055,0.006 0.0718,-0.019 0.143561,-0.0359 0.215938,-0.0483 0.04481,-0.008 0.09082,-0.009 0.136044,-0.0138 0.03064,0.008 0.07126,6e-4 0.0965,0.0159 l 3.797517,-1.32173 4.268154,-1.48626 1.768643,-1.5353 1.768641,-1.53452 0.843979,-0.0974 0.843191,-0.0974 2.693304,-0.0838 2.693301,-0.0838 -0.416848,-1.08602 -0.41685,-1.08683 h 0.73087 0.73087 l 0.794939,-2.2804 0.79494,-2.28121 v -1.70219 -1.7022 h -0.681078 z"
       id="eirunepe" />
    <path
       style="fill:#e6e6e6;stroke-width:0.724248"
       d="m 64.254125,155.08374 h 0.632195 l 0.476815,-2.54161 0.476807,-2.54161 1.909809,-0.49999 1.909807,-0.49997 2.708868,0.0516 2.708869,0.0516 1.636611,1.18712 1.636606,1.1871 2.792501,1.86033 2.792512,1.86032 3.528424,-0.48527 3.528416,-0.4853 0.494644,-3.7288 0.494646,-3.72884 2.431747,-2.36153 2.431736,-2.36154 h -0.956621 -0.956611 l -2.983215,-2.95369 -2.983209,-2.95369 -1.676536,1.68627 -1.676524,1.68625 -1.775919,0.93323 -1.775912,0.93325 -0.623594,-1.11431 -0.623603,-1.11429 h -0.990029 -0.99002 l -0.297624,-0.89287 -0.297613,-0.89283 -3.927151,0.83153 -3.927151,0.83156 -0.724248,-0.85441 -0.724246,-0.85442 -2.534861,-0.23972 -2.534864,-0.23976 -0.859012,-0.70543 -0.859014,-0.70541 -1.445732,0.77374 -1.445741,0.77375 -0.37256,1.26818 -0.372552,1.26821 -0.490734,2.76598 -0.490735,2.76598 -1.358497,0.84841 -1.358498,0.84838 v 1.06836 1.06833 l 3.426135,3.47843 3.426131,3.47845 0.978579,-0.37552 0.978573,-0.37552 h 0.632195 z"
       id="pauini" />
    <path
       style="fill:#e6e6e6;stroke-width:0.724248"
       d="m 202.39989,155.98905 0.20329,-2.71594 0.182,-3.6212 0.18203,-3.62124 0.88212,-1.58196 0.88211,-1.58193 v -1.13399 -1.13398 h -2.05202 -2.05203 l -0.43661,-0.43658 -0.43659,-0.43661 0.66009,-1.73614 0.66009,-1.73615 -0.88739,-0.009 -0.88738,-0.009 -1.68816,-2.60515 -1.68819,-2.60517 0.43453,-1.73135 0.43456,-1.73135 -1.64336,0.0137 -1.64335,0.0138 -3.10383,2.10369 -3.10384,2.1037 -6.85455,2.71295 -6.85454,2.71301 v 2.98372 2.98373 l 1.4983,2.86905 1.4983,2.86906 -0.41826,3.80229 -0.41827,3.8023 h 0.73058 0.73059 l -0.0857,0.54318 -0.0857,0.54317 0.0857,0.54321 0.0857,0.54319 h 12.49322 12.49325 z"
       id="apui" />
    <path
       style="fill:#e6e6e6;stroke-width:0.724248"
       d="m 175.58095,135.33237 c -0.005,0.004 -0.0137,0.0124 -0.0206,0.0199 0.0123,-0.0112 0.0178,-0.017 0.0206,-0.0199 z"
       id="path5079" />
    <path
       id="manicore"
       style="fill:#e6e6e6;stroke-width:0.724248"
       d="m 165.16448,105.82864 -1.45937,1.6326 -1.45936,1.6326 -2.755,2.17283 -2.7558,2.17282 -0.98795,0.57902 -0.98874,0.57978 v 0.71823 0.71899 l -0.70554,0.87485 -0.70556,0.87483 -3.72002,4.59086 -3.71999,4.59165 0.80444,0.80445 0.80442,0.80443 v -0.86928 -0.8693 h 1.28773 1.28694 l 1.58118,-1.10737 1.58117,-1.10739 1.91655,0.4817 1.91735,0.48093 0.64625,-1.00376 0.64623,-1.00297 0.70159,1.08603 0.70082,1.08681 -0.70002,0.24125 -0.70003,0.24046 1.08523,1.54954 1.08523,1.55033 v 1.92287 1.92288 l -1.086,0.90094 -1.08682,0.90172 v 0.9207 0.91993 l -1.08603,0.41684 -1.08602,0.41685 v 0.74669 0.74749 h 1.0259 1.02592 v 3.26044 3.26043 l -1.50367,1.05281 -1.50366,1.05279 0.83923,1.01089 0.83845,1.01087 0.0112,1.73699 0.0112,1.73781 -0.45087,2.71544 -0.45165,2.71625 h 0.71504 0.71507 l 0.91911,0.0246 -1.02749,0.006 1.11608,-0.004 0.25549,0.006 0.9033,-8.2e-4 2.49873,-0.0121 0.11158,0.0238 0.57187,0.0222 2.77874,-0.0387 4.17086,-0.0365 h 0.006 l 2.56279,-0.023 0.0137,0.0175 -0.86614,0.008 4.26657,0.006 v -0.11632 l 0.0585,-0.0372 -0.0585,8.2e-4 v -0.25706 -0.40972 l -0.67787,-1.26715 -0.67786,-1.26716 0.62723,-2.78349 0.62805,-2.78428 -1.34782,-2.963 -1.34786,-2.96303 -0.23729,-3.44474 -0.23335,-3.40361 0.98952,-0.42319 0.004,-0.009 0.12415,-0.049 c -0.0225,-0.0716 -0.0203,-0.1654 0.0182,-0.27604 0.005,0.0137 0.006,0.0233 0.0112,0.0372 l -0.008,-0.0452 v -8.2e-4 c 0.0235,-0.0653 0.0467,-0.1028 0.023,-0.17321 l 0.65888,-1.99013 v -5.02669 -5.02672 l -0.73561,-0.45481 -0.73642,-0.45482 0.53393,-0.85584 0.53392,-0.85506 0.19774,-1.26716 0.19776,-1.26794 h -0.8147 -0.81472 l 0.41131,-2.53432 0.41132,-2.53509 h -0.63596 -0.63595 l -0.42792,0.69288 -0.42794,0.69212 -1.09471,-0.42001 -1.09393,-0.42001 1.11765,-1.23473 1.11766,-1.23473 v -0.48672 -0.48646 h -1.03381 -1.03382 l -2.09213,-2.53748 z m 8.4746,30.46004 0.0284,0.15821 0.0112,-0.0222 c -0.0137,-0.0485 -0.0246,-0.0857 -0.0387,-0.13608 z m 0.0387,0.13609 c 0.25826,0.91793 0.43829,1.51054 0.008,-0.0166 z m -2.18391,22.27333 -1.7109,-0.004 1.21339,0.006 z m 1.82719,-23.58717 c 0.006,0.023 0.0137,0.0508 0.0198,0.0743 -0.004,-0.0121 -0.008,-0.0246 -0.0112,-0.0372 -0.004,-0.0112 -0.006,-0.0256 -0.009,-0.0372 z"
       sodipodi:nodetypes="ccccccccccccccccccccccccccccccccccccccccccccccccccccccccccccccccccccccccccccccccccccccccccccccccccccccccccccccccccccccccccccccccccccc" />
    <path
       id="novoaripuana"
       style="fill:#e6e6e6;stroke-width:0.724248"
       d="m 182.31855,108.20081 -1.82954,0.35041 -1.83033,0.34961 v 0.63991 0.63992 h -2.72258 -2.72337 l -0.96341,1.54318 -0.9642,1.54323 1.8762,-0.47063 1.87623,-0.47064 v 1.31699 1.31779 l -0.83845,0.83843 -0.83844,0.83845 0.81472,0.98161 0.8147,0.98161 -0.0514,3.21299 -0.0514,3.21377 0.16059,0.72454 0.16135,0.72376 -0.0862,4.16452 -0.0784,3.83311 c 5.9e-4,0.004 8.1e-4,0.004 8.1e-4,0.008 0.0643,0.24161 0.17166,0.46857 0.2539,0.70398 0.1223,-0.0137 0.2447,-0.0239 0.36781,-0.0268 0.15747,0.0167 0.23864,-8.1e-4 0.34489,0.18035 0.0501,0.0861 0.0357,0.17274 -0.006,0.25074 l 1.37868,-0.54103 4.89462,-1.91972 v -0.006 l 4.78072,-2.11747 3.18686,-2.55489 -0.0846,-0.026 0.0759,0.008 -0.43267,-2.42596 -0.43345,-2.42516 -1.43803,-2.04943 -1.4372,-2.04864 0.43978,-1.75363 0.43978,-1.75283 h -1.10025 -1.09947 v -1.88017 -1.87937 l -1.42931,-2.00752 z" />
    <path
       style="fill:#e6e6e6;stroke-width:0.724248"
       d="m 155.75141,154.72186 0.46814,-3.98308 -0.88559,-1.41808 -0.8856,-1.41807 1.49371,-1.66023 1.49374,-1.66023 -0.0712,-1.86263 -0.0713,-1.86264 -1.27296,-1.27267 -1.27295,-1.27267 2.17826,-2.64263 2.17827,-2.64261 v -1.61152 -1.61152 l -0.80947,-1.77655 -0.80942,-1.77655 -1.79134,-0.34246 -1.79133,-0.34243 -3.09744,1.73123 -3.09749,1.73119 -1.66004,-0.18946 -1.66005,-0.18951 -0.63794,2.38788 -0.63795,2.38786 -1.05684,0.40554 -1.05683,0.40555 v 1.03161 1.03161 l -1.10794,0.42517 -1.10796,0.42516 0.4316,1.35989 0.43161,1.35989 -0.95321,2.71875 -0.95316,2.71876 -1.44848,1.24333 -1.44851,1.24335 4.93629,0.0241 4.93626,0.0242 1.40088,0.74972 1.40088,0.74974 v 0.9385 0.9385 l 1.74962,0.93637 1.74962,0.93635 0.35531,1.35877 0.35532,1.35874 h 1.15417 1.15418 v 1.4485 1.4485 h 0.62453 0.62452 l 0.46812,-3.98312 z"
       id="path4539" />
    <path
       style="fill:#e6e6e6;stroke-width:0.724248"
       d="m 127.23713,158.94639 v -1.68991 h 1.08639 1.08635 l 0.0836,-0.90531 0.0836,-0.90532 0.16828,-0.72424 0.16824,-0.72424 0.11035,-0.90531 0.11034,-0.9053 h 0.93021 0.9302 l 1.28436,-2.17423 1.28436,-2.17423 -0.37924,-0.6136 -0.37922,-0.6136 1.72807,-0.92485 1.72806,-0.92485 -0.35366,-0.92165 -0.35368,-0.92168 0.77362,-0.47813 0.77363,-0.4781 v -2.77678 -2.77675 l 1.08637,-0.41689 1.08636,-0.41686 v -0.74698 -0.74698 h -4.70761 -4.70758 l -0.0859,-1.26744 -0.0859,-1.26741 0.11755,-0.90533 0.11755,-0.90529 h -0.75598 -0.75601 v -1.0609 -1.06088 l -1.62955,-0.86803 -1.62955,-0.86803 -0.80635,-1.09363 -0.80634,-1.09362 -1.3664,2.07679 -1.36638,2.07678 -0.72426,2.21319 -0.72423,2.21319 -1.62957,0.23144 -1.62956,0.23142 v 1.76026 1.76022 h 2.89699 2.89698 v 1.76348 1.76346 l 0.77636,2.03881 0.77635,2.03884 0.24776,3.62123 0.24777,3.62122 -0.54956,0.72428 -0.54958,0.72423 -0.42931,1.20876 -0.4293,1.2088 1.43845,1.65853 1.43843,1.65855 -1.55955,1.17639 -1.55958,1.17637 h 2.24862 2.24862 z"
       id="canutama" />
    <path
       style="fill:#e6e6e6;stroke-width:0.724248"
       d="m 86.651002,167.21487 -0.131992,-1.62954 0.08022,-1.57782 0.08011,-1.57782 1.156712,-1.15671 1.156713,-1.15672 -0.429878,-1.12021 -0.429863,-1.12022 0.747135,-1.39602 0.747133,-1.39605 h -0.573449 -0.573452 l -2.383151,0.68349 -2.383151,0.68345 -3.043911,-2.15567 -3.043916,-2.15569 -1.61296,-1.13508 -1.612963,-1.13507 h -2.47703 -2.477039 l -1.485949,0.47163 -1.48595,0.47161 0.380198,0.99079 0.380196,0.99078 -1.224694,1.86912 -1.224699,1.86913 h -1.102659 -1.102665 l 2.815514,2.24728 2.815504,2.24731 5.069725,2.56344 5.069724,2.56343 3.621227,1.29245 3.621228,1.29245 0.595022,0.053 0.595012,0.053 -0.132002,-1.62954 z"
       id="bocadoacre" />
    <path
       style="fill:#e6e6e6;stroke-width:0.724248"
       d="m 95.583028,169.89198 2.72172,-1.84946 -0.423605,-0.68542 -0.423588,-0.68541 h 3.519125 3.51912 l 0.86908,0.8691 0.86911,0.86909 0.86909,-0.86909 0.8691,-0.8691 h 1.30363 1.30366 v -0.63977 -0.63975 l 1.57508,-0.41191 1.57509,-0.4119 0.81681,1.11707 0.81684,1.11708 0.79779,-0.97072 0.79781,-0.9707 0.25047,-1.80597 0.25044,-1.80593 1.81945,-0.36681 1.81944,-0.36676 1.80179,-1.28785 1.80179,-1.28786 -0.80769,-0.52275 -0.8077,-0.52278 -0.45039,-1.44849 -0.45039,-1.44849 1.03787,-1.99899 1.03785,-1.99898 -0.65466,-3.79499 -0.65466,-3.79498 -0.78869,-2.71592 -0.78873,-2.71592 h -2.7018 -2.7018 l -1.58985,1.11359 -1.58989,1.11359 -4.90843,0.32978 -4.90843,0.32978 -1.08637,0.0899 -1.08637,0.09 -3.259106,-0.71993 -3.259116,-0.71994 -1.448478,-0.53371 -1.448496,-0.53369 2.17274,1.86703 2.172733,1.86703 1.629544,0.0261 1.629567,0.026 v 0.99852 0.9985 l -2.22884,0.92321 -2.228843,0.9232 -0.995446,1.51926 -0.995437,1.51923 -0.16245,2.89619 -0.162446,2.89621 -1.32088,1.29565 -1.320868,1.29563 v 2.00609 2.00611 l -1.063328,1.40586 -1.063337,1.40585 -0.0231,2.94666 -0.02309,2.94664 2.353788,1.17147 2.353799,1.17143 0.375075,0.0463 0.375062,0.0463 2.721717,-1.84945 z"
       id="labrea" />
  </g>
</svg>
